<svg width="21" height="20" viewBox="0 0 21 20" fill="none" xmlns="http://www.w3.org/2000/svg">
<path d="M14.69 0H6.31C2.67 0 0.5 2.17 0.5 5.81V14.18C0.5 17.83 2.67 20 6.31 20H14.68C18.32 20 20.49 17.83 20.49 14.19V5.81C20.5 2.17 18.33 0 14.69 0ZM11.83 15H9.16C8.75 15 8.41 14.66 8.41 14.25C8.41 13.84 8.75 13.5 9.16 13.5H11.83C12.24 13.5 12.58 13.84 12.58 14.25C12.58 14.66 12.25 15 11.83 15ZM14.5 10.75H6.5C6.09 10.75 5.75 10.41 5.75 10C5.75 9.59 6.09 9.25 6.5 9.25H14.5C14.91 9.25 15.25 9.59 15.25 10C15.25 10.41 14.91 10.75 14.5 10.75ZM16.5 6.5H4.5C4.09 6.5 3.75 6.16 3.75 5.75C3.75 5.34 4.09 5 4.5 5H16.5C16.91 5 17.25 5.34 17.25 5.75C17.25 6.16 16.91 6.5 16.5 6.5Z" fill="#525252"/>
</svg>
