<svg width="19" height="20" viewBox="0 0 19 20" fill="none" xmlns="http://www.w3.org/2000/svg">
<path d="M17.0119 3.85L11.0719 0.42C10.1019 -0.14 8.90187 -0.14 7.92188 0.42L1.99187 3.85C1.02187 4.41 0.421875 5.45 0.421875 6.58V13.42C0.421875 14.54 1.02187 15.58 1.99187 16.15L7.93188 19.58C8.90188 20.14 10.1019 20.14 11.0819 19.58L17.0219 16.15C17.9919 15.59 18.5919 14.55 18.5919 13.42V6.58C18.5819 5.45 17.9819 4.42 17.0119 3.85ZM9.50187 5.34C10.7919 5.34 11.8319 6.38 11.8319 7.67C11.8319 8.96 10.7919 10 9.50187 10C8.21187 10 7.17188 8.96 7.17188 7.67C7.17188 6.39 8.21187 5.34 9.50187 5.34ZM12.1819 14.66H6.82187C6.01187 14.66 5.54187 13.76 5.99187 13.09C6.67187 12.08 7.99187 11.4 9.50187 11.4C11.0119 11.4 12.3319 12.08 13.0119 13.09C13.4619 13.75 12.9819 14.66 12.1819 14.66Z" fill="white"/>
<path d="M17.0119 3.85L11.0719 0.42C10.1019 -0.14 8.90187 -0.14 7.92188 0.42L1.99187 3.85C1.02187 4.41 0.421875 5.45 0.421875 6.58V13.42C0.421875 14.54 1.02187 15.58 1.99187 16.15L7.93188 19.58C8.90188 20.14 10.1019 20.14 11.0819 19.58L17.0219 16.15C17.9919 15.59 18.5919 14.55 18.5919 13.42V6.58C18.5819 5.45 17.9819 4.42 17.0119 3.85ZM9.50187 5.34C10.7919 5.34 11.8319 6.38 11.8319 7.67C11.8319 8.96 10.7919 10 9.50187 10C8.21187 10 7.17188 8.96 7.17188 7.67C7.17188 6.39 8.21187 5.34 9.50187 5.34ZM12.1819 14.66H6.82187C6.01187 14.66 5.54187 13.76 5.99187 13.09C6.67187 12.08 7.99187 11.4 9.50187 11.4C11.0119 11.4 12.3319 12.08 13.0119 13.09C13.4619 13.75 12.9819 14.66 12.1819 14.66Z" fill="#D51414"/>
</svg>
