<svg width="19" height="20" viewBox="0 0 19 20" fill="none" xmlns="http://www.w3.org/2000/svg">
<path d="M16.44 3.42L11.27 0.430002C10.28 -0.139998 8.73002 -0.139998 7.74002 0.430002L2.52002 3.44C0.450017 4.84 0.330017 5.05 0.330017 7.28V12.71C0.330017 14.94 0.450017 15.16 2.56002 16.58L7.73002 19.57C8.23002 19.86 8.87002 20 9.50002 20C10.13 20 10.77 19.86 11.26 19.57L16.48 16.56C18.55 15.16 18.67 14.95 18.67 12.72V7.28C18.67 5.05 18.55 4.84 16.44 3.42ZM9.50002 13.25C7.71002 13.25 6.25002 11.79 6.25002 10C6.25002 8.21 7.71002 6.75 9.50002 6.75C11.29 6.75 12.75 8.21 12.75 10C12.75 11.79 11.29 13.25 9.50002 13.25Z" fill="white"/>
<path d="M16.44 3.42L11.27 0.430002C10.28 -0.139998 8.73002 -0.139998 7.74002 0.430002L2.52002 3.44C0.450017 4.84 0.330017 5.05 0.330017 7.28V12.71C0.330017 14.94 0.450017 15.16 2.56002 16.58L7.73002 19.57C8.23002 19.86 8.87002 20 9.50002 20C10.13 20 10.77 19.86 11.26 19.57L16.48 16.56C18.55 15.16 18.67 14.95 18.67 12.72V7.28C18.67 5.05 18.55 4.84 16.44 3.42ZM9.50002 13.25C7.71002 13.25 6.25002 11.79 6.25002 10C6.25002 8.21 7.71002 6.75 9.50002 6.75C11.29 6.75 12.75 8.21 12.75 10C12.75 11.79 11.29 13.25 9.50002 13.25Z" fill="#D51414"/>
</svg>
