<svg width="24" height="24" viewBox="0 0 24 24" fill="none" xmlns="http://www.w3.org/2000/svg">
<path d="M11.1168 3.66283C11.4928 2.95492 12.5072 2.95492 12.8832 3.66283L14.8392 7.34568C14.9837 7.61783 15.2457 7.80813 15.5492 7.8615L19.6562 8.58374C20.4457 8.72256 20.7591 9.68727 20.202 10.2636L17.3039 13.262C17.0897 13.4835 16.9897 13.7915 17.0327 14.0966L17.615 18.2258C17.7269 19.0195 16.9062 19.6157 16.186 19.264L12.4388 17.4343C12.1619 17.299 11.8381 17.299 11.5612 17.4343L7.81406 19.264C7.09378 19.6157 6.27314 19.0195 6.38506 18.2258L6.96732 14.0966C7.01035 13.7915 6.9103 13.4835 6.69614 13.262L3.798 10.2636C3.24092 9.68727 3.55438 8.72256 4.34383 8.58374L8.45087 7.8615C8.75436 7.80813 9.0163 7.61782 9.16084 7.34568L11.1168 3.66283Z" fill="#545560" stroke="#545560" stroke-width="1.5"/>
</svg>
