<svg width="24" height="19" viewBox="0 0 24 19" fill="none" xmlns="http://www.w3.org/2000/svg">
<path fill-rule="evenodd" clip-rule="evenodd" d="M10.8387 0.013158C6.83217 0.245551 3.38601 1.40678 1.52514 3.15149C0.936874 3.70304 0.552759 4.24651 0.272709 4.92372C0.0921517 5.36017 0.0597114 5.54251 0.0573889 6.13486C0.0555908 6.58849 0.0988945 6.97327 0.181231 7.2359C0.985946 9.8014 4.81031 11.8108 9.81653 12.2985C10.8144 12.3957 13.1856 12.3957 14.1835 12.2985C19.1897 11.8108 23.0141 9.8014 23.8188 7.2359C23.9011 6.97327 23.9444 6.58849 23.9426 6.13486C23.9403 5.54251 23.9078 5.36017 23.7273 4.92372C23.4472 4.24651 23.0631 3.70304 22.4749 3.15149C20.8896 1.66523 18.0212 0.545988 14.8095 0.160697C13.8878 0.0500794 11.6413 -0.0333793 10.8387 0.013158ZM0.0267466 11.6614L0.0534929 13.5852L0.269337 14.0991C0.981751 15.7948 2.7626 17.1429 5.49912 18.058C7.4382 18.7064 9.46419 19 12 19C14.5358 19 16.5618 18.7064 18.5009 18.058C21.2374 17.1429 23.0182 15.7948 23.7307 14.0991L23.9465 13.5852L23.9733 11.6614L24 9.73761L23.497 10.2091C21.5112 12.0703 18.2007 13.3122 14.2158 13.6909C13.1643 13.7909 10.8357 13.7909 9.78417 13.6909C5.79925 13.3122 2.48877 12.0703 0.503012 10.2091L0 9.73761L0.0267466 11.6614Z" fill="white"/>
<path fill-rule="evenodd" clip-rule="evenodd" d="M10.8387 0.013158C6.83217 0.245551 3.38601 1.40678 1.52514 3.15149C0.936874 3.70304 0.552759 4.24651 0.272709 4.92372C0.0921517 5.36017 0.0597114 5.54251 0.0573889 6.13486C0.0555908 6.58849 0.0988945 6.97327 0.181231 7.2359C0.985946 9.8014 4.81031 11.8108 9.81653 12.2985C10.8144 12.3957 13.1856 12.3957 14.1835 12.2985C19.1897 11.8108 23.0141 9.8014 23.8188 7.2359C23.9011 6.97327 23.9444 6.58849 23.9426 6.13486C23.9403 5.54251 23.9078 5.36017 23.7273 4.92372C23.4472 4.24651 23.0631 3.70304 22.4749 3.15149C20.8896 1.66523 18.0212 0.545988 14.8095 0.160697C13.8878 0.0500794 11.6413 -0.0333793 10.8387 0.013158ZM0.0267466 11.6614L0.0534929 13.5852L0.269337 14.0991C0.981751 15.7948 2.7626 17.1429 5.49912 18.058C7.4382 18.7064 9.46419 19 12 19C14.5358 19 16.5618 18.7064 18.5009 18.058C21.2374 17.1429 23.0182 15.7948 23.7307 14.0991L23.9465 13.5852L23.9733 11.6614L24 9.73761L23.497 10.2091C21.5112 12.0703 18.2007 13.3122 14.2158 13.6909C13.1643 13.7909 10.8357 13.7909 9.78417 13.6909C5.79925 13.3122 2.48877 12.0703 0.503012 10.2091L0 9.73761L0.0267466 11.6614Z" fill="#D51414"/>
</svg>
